Patient4_TMGait_0pt5_01_right_36_GRF.mot
version=1
nRows=32
nColumns=19
inDegrees=no
endheader
time	F1x	F1y	F1z	M1x	M1y	M1z	F2x	F2y	F2z	M2x	M2y	M2z	EC1x	EC1y	EC1z	EC2x	EC2y	EC2z
47.32	30.55	789.5495	62.4609	-290.1722	-38.9458	651.2055	-7.7065	-1.0677	-12.8042	3.0031	14.9179	-0.64319	-0.0592	0.0182	-0.0073	-0.0462	0.0165	0.9585
47.3332	22.3485	778.7449	62.4641	-285.1218	-40.8792	636.6102	-5.2663	-0.17419	-8.7401	2.2582	10.2358	0.11286	-0.0592	0.0182	-0.0073	-0.0462	0.0165	0.9585
47.3464	15.3081	766.9734	62.3617	-279.5646	-42.3603	621.6962	-3.1842	0.56584	-5.2726	1.6176	6.2284	0.72999	-0.0592	0.0182	-0.0073	-0.0462	0.0165	0.9585
47.3596	9.8771	755.1498	62.227	-273.8878	-43.3438	607.4527	-1.5823	1.1165	-2.6149	1.1268	3.1438	1.1854	-0.0592	0.0182	-0.0073	-0.0462	0.0165	0.9585
47.3729	6.1041	744.1898	62.1461	-268.4774	-43.8984	594.6115	-0.47124	1.5043	-0.77306	0.79202	0.99304	1.5112	-0.0592	0.0182	-0.0073	-0.0462	0.0165	0.9585
47.3861	3.8019	734.8853	62.1964	-263.6725	-44.1425	583.6661	0.22413	1.7567	0.37065	0.59172	-0.35551	1.7258	-0.0592	0.0182	-0.0073	-0.0462	0.0165	0.9585
47.3993	2.711	727.8265	62.4124	-259.7383	-44.18	574.8817	0.59185	1.8991	0.96904	0.49107	-1.071	1.8567	-0.0592	0.0182	-0.0073	-0.0462	0.0165	0.9585
47.4125	2.5546	723.3602	62.7691	-256.8478	-44.0729	568.3247	0.72292	1.9498	1.1855	0.4519	-1.3355	1.9156	-0.0592	0.0182	-0.0073	-0.0462	0.0165	0.9585
47.4257	3.0998	721.5614	63.1976	-255.0684	-43.8401	563.8626	0.70313	1.8992	1.1578	0.43248	-1.3078	1.8804	-0.0592	0.0182	-0.0073	-0.0462	0.0165	0.9585
47.4389	4.1843	722.2622	63.5889	-254.3691	-43.4429	561.2068	0.58278	1.7232	0.99927	0.39295	-1.1141	1.724	-0.0592	0.0182	-0.0073	-0.0462	0.0165	0.9585
47.4521	5.716	725.0644	63.8411	-254.6201	-42.8262	559.9438	0.41586	1.362	0.78801	0.29143	-0.8481	1.3754	-0.0592	0.0182	-0.0073	-0.0462	0.0165	0.9585
47.4654	7.6697	729.3761	63.8586	-255.6067	-41.9139	559.5476	0.22205	0.76245	0.57552	0.093416	-0.57021	0.78852	-0.0592	0.0182	-0.0073	-0.0462	0.0165	0.9585
47.4786	10.0376	734.4852	63.6157	-257.0551	-40.6796	559.4594	0.027371	-0.13211	0.39545	-0.23062	-0.32445	-0.082134	-0.0592	0.0182	-0.0073	-0.0462	0.0165	0.9585
47.4918	12.8407	739.6868	63.1249	-258.6836	-39.1127	559.1662	-0.15442	-1.3435	0.26958	-0.69241	-0.13902	-1.244	-0.0592	0.0182	-0.0073	-0.0462	0.0165	0.9585
47.505	16.0617	744.4146	62.4762	-260.249	-37.2724	558.3006	-0.30873	-2.8315	0.21998	-1.2749	-0.039448	-2.6573	-0.0592	0.0182	-0.0073	-0.0462	0.0165	0.9585
47.5182	19.6486	748.3308	61.7802	-261.5851	-35.2401	556.6794	-0.39479	-4.4536	0.26531	-1.9174	-0.054154	-4.1964	-0.0592	0.0182	-0.0073	-0.0462	0.0165	0.9585
47.5314	23.5147	751.3064	61.1845	-262.5983	-33.141	554.2945	-0.37838	-5.903	0.43391	-2.4933	-0.22444	-5.5675	-0.0592	0.0182	-0.0073	-0.0462	0.0165	0.9585
47.5446	27.5394	753.3239	60.7974	-263.2423	-31.0888	551.2337	-0.19327	-6.6583	0.75328	-2.7898	-0.60225	-6.2962	-0.0592	0.0182	-0.0073	-0.0462	0.0165	0.9585
47.5579	31.5757	754.3551	60.7041	-263.4809	-29.2007	547.5586	0.23358	-5.9136	1.2573	-2.4845	-1.2461	-5.6331	-0.0592	0.0182	-0.0073	-0.0462	0.0165	0.9585
47.5711	35.4718	754.2825	60.9259	-263.2617	-27.5512	543.2423	0.99181	-2.558	1.9675	-1.1369	-2.2051	-2.5439	-0.0592	0.0182	-0.0073	-0.0462	0.0165	0.9585
47.5843	39.1136	752.8379	61.4401	-262.497	-26.1772	538.1177	2.1642	4.7896	2.8778	1.7976	-3.4973	4.2551	-0.0592	0.0182	-0.0073	-0.0462	0.0165	0.9585
47.5975	42.4627	749.6094	62.1527	-261.0617	-25.0464	531.9031	3.7781	17.6528	3.9186	6.9182	-5.0597	16.1982	-0.0592	0.0182	-0.0073	-0.0462	0.0165	0.9585
47.6107	45.5309	744.0495	62.9092	-258.7899	-24.0733	524.2317	5.6862	37.4952	4.946	14.799	-6.6892	34.6637	-0.0592	0.0182	-0.0073	-0.0462	0.0165	0.9585
47.6239	48.3629	735.4953	63.4912	-255.48	-23.1158	514.6599	7.3841	65.3615	5.7312	25.8423	-7.9636	60.6454	-0.0592	0.0182	-0.0073	-0.0462	0.0165	0.9585
47.6371	50.9852	723.2267	63.6282	-250.9122	-22.0027	502.7284	7.9144	101.2569	5.9534	40.0377	-8.2028	94.1704	-0.0592	0.0182	-0.0073	-0.0462	0.0165	0.9585
47.6504	53.3341	706.5518	63.0179	-244.8763	-20.57	488.0255	6.254	143.6626	5.2512	56.7666	-6.6785	133.8594	-0.0592	0.0182	-0.0073	-0.0462	0.0165	0.9585
47.6636	55.2878	684.9342	61.3792	-237.2116	-18.6896	470.26	2.2849	189.3402	3.3303	74.7282	-3.0877	176.6825	-0.0592	0.0182	-0.0073	-0.0462	0.0165	0.9585
47.6768	56.6591	658.1387	58.5368	-227.852	-16.3226	449.3601	-3.1381	233.8072	0.1447	92.163	2.2433	218.3118	-0.0592	0.0182	-0.0073	-0.0462	0.0165	0.9585
47.69	57.2722	626.3294	54.4982	-216.8517	-13.543	425.509	-8.9691	273.821	-3.8132	107.8255	8.3936	255.5212	-0.0592	0.0182	-0.0073	-0.0462	0.0165	0.9585
47.7032	56.989	589.9896	49.4658	-204.3555	-10.5196	399.0821	-14.3983	308.7705	-7.8598	121.5171	14.3758	287.5805	-0.0592	0.0182	-0.0073	-0.0462	0.0165	0.9585
47.7164	55.7531	549.6295	43.7792	-190.509	-7.4675	370.4346	-18.9467	339.8429	-11.4086	133.7449	19.4445	315.5287	-0.0592	0.0182	-0.0073	-0.0462	0.0165	0.9585
47.7296	53.5714	505.6093	37.7914	-175.4071	-4.5815	339.7803	-22.3592	368.842	-14.1195	145.2429	23.1924	341.0113	-0.0592	0.0182	-0.0073	-0.0462	0.0165	0.9585
